<svg width="2" height="8" viewBox="0 0 2 8" fill="none" xmlns="http://www.w3.org/2000/svg">
<path d="M0.915385 1.83077C0.67261 1.83077 0.439778 1.73433 0.26811 1.56266C0.0964422 1.39099 0 1.15816 0 0.915385C0 0.67261 0.0964422 0.439778 0.26811 0.26811C0.439778 0.096442 0.67261 0 0.915385 0C1.15816 0 1.39099 0.096442 1.56266 0.26811C1.73433 0.439778 1.83077 0.67261 1.83077 0.915385C1.83077 1.15816 1.73433 1.39099 1.56266 1.56266C1.39099 1.73433 1.15816 1.83077 0.915385 1.83077ZM0.915385 4.57692C0.67261 4.57692 0.439778 4.48048 0.26811 4.30881C0.0964422 4.13715 0 3.90431 0 3.66154C0 3.41876 0.0964422 3.18593 0.26811 3.01426C0.439778 2.8426 0.67261 2.74615 0.915385 2.74615C1.15816 2.74615 1.39099 2.8426 1.56266 3.01426C1.73433 3.18593 1.83077 3.41876 1.83077 3.66154C1.83077 3.90431 1.73433 4.13715 1.56266 4.30881C1.39099 4.48048 1.15816 4.57692 0.915385 4.57692ZM0.915385 7.32308C0.67261 7.32308 0.439778 7.22663 0.26811 7.05497C0.0964422 6.8833 0 6.65047 0 6.40769C0 6.16492 0.0964422 5.93209 0.26811 5.76042C0.439778 5.58875 0.67261 5.49231 0.915385 5.49231C1.15816 5.49231 1.39099 5.58875 1.56266 5.76042C1.73433 5.93209 1.83077 6.16492 1.83077 6.40769C1.83077 6.65047 1.73433 6.8833 1.56266 7.05497C1.39099 7.22663 1.15816 7.32308 0.915385 7.32308Z" fill="black"/>
</svg>
