<svg width="14" height="12" viewBox="0 0 14 12" fill="none" xmlns="http://www.w3.org/2000/svg">
<path d="M5.10256 1L5.54341 0.577996L5.36319 0.38973H5.10256V1ZM6.47009 2.42857L6.02924 2.85058L6.20946 3.03884H6.47009V2.42857ZM9.96238 4.57143C9.96238 4.90847 10.2356 5.1817 10.5727 5.1817C10.9097 5.1817 11.1829 4.90847 11.1829 4.57143H9.96238ZM1.61027 9.57143V2.42857H0.38973V9.57143H1.61027ZM2.36752 1.61027H5.10256V0.38973H2.36752V1.61027ZM4.66172 1.422L6.02924 2.85058L6.91093 2.00657L5.54341 0.577996L4.66172 1.422ZM6.47009 3.03884H9.20513V1.8183H6.47009V3.03884ZM9.20513 3.03884C9.5985 3.03884 9.96238 3.37981 9.96238 3.85714H11.1829C11.1829 2.75652 10.3223 1.8183 9.20513 1.8183V3.03884ZM1.61027 2.42857C1.61027 1.95124 1.97415 1.61027 2.36752 1.61027V0.38973C1.25037 0.38973 0.38973 1.32794 0.38973 2.42857H1.61027ZM0.38973 9.57143C0.38973 10.6721 1.25037 11.6103 2.36752 11.6103V10.3897C1.97415 10.3897 1.61027 10.0488 1.61027 9.57143H0.38973ZM9.96238 3.85714V4.57143H11.1829V3.85714H9.96238ZM4.34531 6C4.34531 5.52267 4.70919 5.1817 5.10256 5.1817V3.96116C3.98542 3.96116 3.12477 4.89937 3.12477 6H4.34531ZM5.10256 5.1817H11.9402V3.96116H5.10256V5.1817ZM11.9402 5.1817C12.3335 5.1817 12.6974 5.52267 12.6974 6H13.918C13.918 4.89937 13.0573 3.96116 11.9402 3.96116V5.1817ZM12.6974 6V9.57143H13.918V6H12.6974ZM12.6974 9.57143C12.6974 10.0488 12.3335 10.3897 11.9402 10.3897V11.6103C13.0573 11.6103 13.918 10.6721 13.918 9.57143H12.6974ZM11.9402 10.3897H2.36752V11.6103H11.9402V10.3897ZM2.36752 11.6103C3.48467 11.6103 4.34531 10.6721 4.34531 9.57143H3.12477C3.12477 10.0488 2.76089 10.3897 2.36752 10.3897V11.6103ZM4.34531 9.57143V6H3.12477V9.57143H4.34531Z" fill="#999999"/>
</svg>
