<svg width="1367" height="911" viewBox="0 0 1367 911" fill="none" xmlns="http://www.w3.org/2000/svg">
<path opacity="0.8" d="M0 202.46L708.207 910.667H0V202.46Z" fill="url(#paint0_linear)"/>
<path d="M1366 0H950.955L1366 415.045V0Z" fill="url(#paint1_linear)"/>
<path d="M0 660.216V910.667H252L0 660.216Z" fill="url(#paint2_linear)"/>
<path opacity="0.8" d="M1366 595.649V232.439L1133.56 0H770.352L1366 595.649Z" fill="url(#paint3_linear)"/>
<path opacity="0.8" d="M1366 704.036V499.701L866.3 0H661.965L1366 704.036Z" fill="url(#paint4_linear)"/>
<path opacity="0.8" d="M554.177 0H0V115.691L794.976 910.667H1366V811.823L554.177 0Z" fill="url(#paint5_linear)"/>
<path opacity="0.8" d="M126 0L1036.67 910.667H1254.28L343.613 0H126Z" fill="url(#paint6_linear)"/>
<path opacity="0.8" d="M206.211 0L1116.88 910.667H1334.49L423.824 0H206.211Z" fill="url(#paint7_linear)"/>
<path opacity="0.8" d="M562.519 910.667H925.729L15.0624 0H0V348.148L562.519 910.667Z" fill="url(#paint8_linear)"/>
<path opacity="0.8" d="M0 573.702V910.667H342.484L0 573.702Z" fill="url(#paint9_linear)"/>
<path opacity="0.8" d="M0 708.207L708.207 0H0V708.207Z" fill="url(#paint10_linear)"/>
<path d="M1366 910.665H950.955L1366 495.62V910.665Z" fill="url(#paint11_linear)"/>
<path d="M0 250.452V0H252L0 250.452Z" fill="url(#paint12_linear)"/>
<path opacity="0.8" d="M1366 315.02V678.23L1133.56 910.668H770.352L1366 315.02Z" fill="url(#paint13_linear)"/>
<path opacity="0.8" d="M1366 168.491V383.9L839.233 910.666H623.824L1366 168.491Z" fill="url(#paint14_linear)"/>
<path opacity="0.8" d="M554.177 910.667H0V794.976L794.976 0H1366V98.8438L554.177 910.667Z" fill="url(#paint15_linear)"/>
<path opacity="0.8" d="M126 910.667L1036.67 0H1254.28L343.613 910.667H126Z" fill="url(#paint16_linear)"/>
<path opacity="0.8" d="M144.068 910.667L1054.74 0H1272.35L361.681 910.667H144.068Z" fill="url(#paint17_linear)"/>
<path opacity="0.8" d="M562.519 0H925.729L15.0624 910.667H0V562.519L562.519 0Z" fill="url(#paint18_linear)"/>
<path opacity="0.8" d="M0 336.965V0H342.484L0 336.965Z" fill="url(#paint19_linear)"/>
<defs>
<linearGradient id="paint0_linear" x1="353.471" y1="557.196" x2="-18.527" y2="929.194" gradientUnits="userSpaceOnUse">
<stop stop-color="white"/>
<stop offset="1" stop-color="white" stop-opacity="0"/>
</linearGradient>
<linearGradient id="paint1_linear" x1="1365.63" y1="0.369712" x2="1147.62" y2="218.384" gradientUnits="userSpaceOnUse">
<stop stop-color="#E2E5E6"/>
<stop offset="0.4938" stop-color="#F6F6F6"/>
<stop offset="1" stop-color="#E2E5E6"/>
</linearGradient>
<linearGradient id="paint2_linear" x1="126.159" y1="785.277" x2="-6.20802" y2="917.644" gradientUnits="userSpaceOnUse">
<stop stop-color="#E2E5E6"/>
<stop offset="0.4938" stop-color="#F6F6F6"/>
<stop offset="1" stop-color="#E2E5E6"/>
</linearGradient>
<linearGradient id="paint3_linear" x1="1249.46" y1="116.539" x2="1058.67" y2="307.326" gradientUnits="userSpaceOnUse">
<stop stop-color="white"/>
<stop offset="1" stop-color="white" stop-opacity="0"/>
</linearGradient>
<linearGradient id="paint4_linear" x1="1115.97" y1="250.03" x2="1008.64" y2="357.365" gradientUnits="userSpaceOnUse">
<stop stop-color="white"/>
<stop offset="1" stop-color="white" stop-opacity="0"/>
</linearGradient>
<linearGradient id="paint5_linear" x1="957.515" y1="180.818" x2="519.998" y2="618.335" gradientUnits="userSpaceOnUse">
<stop stop-color="white"/>
<stop offset="1" stop-color="white" stop-opacity="0"/>
</linearGradient>
<linearGradient id="paint6_linear" x1="638.217" y1="507.26" x2="802.334" y2="343.143" gradientUnits="userSpaceOnUse">
<stop stop-color="white"/>
<stop offset="1" stop-color="white" stop-opacity="0"/>
</linearGradient>
<linearGradient id="paint7_linear" x1="818.795" y1="406.89" x2="714.84" y2="510.844" gradientUnits="userSpaceOnUse">
<stop stop-color="white"/>
<stop offset="1" stop-color="white" stop-opacity="0"/>
</linearGradient>
<linearGradient id="paint8_linear" x1="466.311" y1="451.89" x2="275.524" y2="642.677" gradientUnits="userSpaceOnUse">
<stop stop-color="white"/>
<stop offset="1" stop-color="white" stop-opacity="0"/>
</linearGradient>
<linearGradient id="paint9_linear" x1="172.311" y1="741.111" x2="-7.58205" y2="921.004" gradientUnits="userSpaceOnUse">
<stop stop-color="white"/>
<stop offset="1" stop-color="white" stop-opacity="0"/>
</linearGradient>
<linearGradient id="paint10_linear" x1="353.471" y1="353.471" x2="-18.527" y2="-18.5272" gradientUnits="userSpaceOnUse">
<stop stop-color="white"/>
<stop offset="1" stop-color="white" stop-opacity="0"/>
</linearGradient>
<linearGradient id="paint11_linear" x1="1365.63" y1="910.296" x2="1147.62" y2="692.281" gradientUnits="userSpaceOnUse">
<stop stop-color="#E2E5E6"/>
<stop offset="0.4938" stop-color="#F6F6F6"/>
<stop offset="1" stop-color="#E2E5E6"/>
</linearGradient>
<linearGradient id="paint12_linear" x1="126.159" y1="125.39" x2="-6.20801" y2="-6.97662" gradientUnits="userSpaceOnUse">
<stop stop-color="#E2E5E6"/>
<stop offset="0.4938" stop-color="#F6F6F6"/>
<stop offset="1" stop-color="#E2E5E6"/>
</linearGradient>
<linearGradient id="paint13_linear" x1="1249.46" y1="794.13" x2="1058.67" y2="603.343" gradientUnits="userSpaceOnUse">
<stop stop-color="white"/>
<stop offset="1" stop-color="white" stop-opacity="0"/>
</linearGradient>
<linearGradient id="paint14_linear" x1="1102.42" y1="647.09" x2="989.272" y2="533.939" gradientUnits="userSpaceOnUse">
<stop stop-color="white"/>
<stop offset="1" stop-color="white" stop-opacity="0"/>
</linearGradient>
<linearGradient id="paint15_linear" x1="957.515" y1="729.849" x2="519.998" y2="292.332" gradientUnits="userSpaceOnUse">
<stop stop-color="white"/>
<stop offset="1" stop-color="white" stop-opacity="0"/>
</linearGradient>
<linearGradient id="paint16_linear" x1="638.217" y1="403.407" x2="802.334" y2="567.524" gradientUnits="userSpaceOnUse">
<stop stop-color="white"/>
<stop offset="1" stop-color="white" stop-opacity="0"/>
</linearGradient>
<linearGradient id="paint17_linear" x1="756.649" y1="503.777" x2="652.694" y2="399.823" gradientUnits="userSpaceOnUse">
<stop stop-color="white"/>
<stop offset="1" stop-color="white" stop-opacity="0"/>
</linearGradient>
<linearGradient id="paint18_linear" x1="466.311" y1="458.777" x2="275.524" y2="267.99" gradientUnits="userSpaceOnUse">
<stop stop-color="white"/>
<stop offset="1" stop-color="white" stop-opacity="0"/>
</linearGradient>
<linearGradient id="paint19_linear" x1="172.311" y1="169.556" x2="-7.58203" y2="-10.3364" gradientUnits="userSpaceOnUse">
<stop stop-color="white"/>
<stop offset="1" stop-color="white" stop-opacity="0"/>
</linearGradient>
</defs>
</svg>
