<svg width="1366" height="793" viewBox="0 0 1366 793" fill="none" xmlns="http://www.w3.org/2000/svg">
<g clip-path="url(#clip0)">
<rect width="1366" height="793" fill="white"/>
<path d="M1366 -5H0V905.667H1366V-5Z" fill="url(#paint0_linear)"/>
<path opacity="0.8" d="M0 197.46L708.207 905.667H0V197.46Z" fill="url(#paint1_linear)"/>
<path d="M1366 -5H950.955L1366 410.045V-5Z" fill="url(#paint2_linear)"/>
<path d="M0 655.216V905.667H252L0 655.216Z" fill="url(#paint3_linear)"/>
<path opacity="0.8" d="M1366 590.649V227.439L1133.56 -5H770.352L1366 590.649Z" fill="url(#paint4_linear)"/>
<path opacity="0.8" d="M1366 699.036V494.701L866.3 -5H661.965L1366 699.036Z" fill="url(#paint5_linear)"/>
<path opacity="0.8" d="M554.177 -5H0V110.691L794.976 905.667H1366V806.823L554.177 -5Z" fill="url(#paint6_linear)"/>
<path opacity="0.8" d="M126 -5L1036.67 905.667H1254.28L343.613 -5H126Z" fill="url(#paint7_linear)"/>
<path opacity="0.8" d="M206.211 -5L1116.88 905.667H1334.49L423.824 -5H206.211Z" fill="url(#paint8_linear)"/>
<path opacity="0.8" d="M562.519 905.667H925.729L15.0624 -5H0V343.148L562.519 905.667Z" fill="url(#paint9_linear)"/>
<path opacity="0.8" d="M0 568.702V905.667H342.484L0 568.702Z" fill="url(#paint10_linear)"/>
<path opacity="0.8" d="M0 703.207L708.207 -5H0V703.207Z" fill="url(#paint11_linear)"/>
<path d="M1366 905.665H950.955L1366 490.62V905.665Z" fill="url(#paint12_linear)"/>
<path d="M0 245.452V-5H252L0 245.452Z" fill="url(#paint13_linear)"/>
<path opacity="0.8" d="M1366 310.02V673.23L1133.56 905.668H770.352L1366 310.02Z" fill="url(#paint14_linear)"/>
<path opacity="0.8" d="M1366 163.491V378.9L839.233 905.666H623.824L1366 163.491Z" fill="url(#paint15_linear)"/>
<path opacity="0.8" d="M554.177 905.667H0V789.976L794.976 -5H1366V93.8438L554.177 905.667Z" fill="url(#paint16_linear)"/>
<path opacity="0.8" d="M126 905.667L1036.67 -5H1254.28L343.613 905.667H126Z" fill="url(#paint17_linear)"/>
<path opacity="0.8" d="M144.068 905.667L1054.74 -5H1272.35L361.681 905.667H144.068Z" fill="url(#paint18_linear)"/>
<path opacity="0.8" d="M562.519 -5H925.729L15.0624 905.667H0V557.519L562.519 -5Z" fill="url(#paint19_linear)"/>
<path opacity="0.8" d="M0 331.965V-5H342.484L0 331.965Z" fill="url(#paint20_linear)"/>
</g>
<defs>
<linearGradient id="paint0_linear" x1="1250.14" y1="-116.806" x2="54.2744" y2="1079.06" gradientUnits="userSpaceOnUse">
<stop stop-color="#E2E5E6"/>
<stop offset="0.4938" stop-color="#F6F6F6"/>
<stop offset="1" stop-color="#E2E5E6"/>
</linearGradient>
<linearGradient id="paint1_linear" x1="353.471" y1="552.196" x2="-18.527" y2="924.194" gradientUnits="userSpaceOnUse">
<stop stop-color="white"/>
<stop offset="1" stop-color="white" stop-opacity="0"/>
</linearGradient>
<linearGradient id="paint2_linear" x1="1365.63" y1="-4.63029" x2="1147.62" y2="213.384" gradientUnits="userSpaceOnUse">
<stop stop-color="#E2E5E6"/>
<stop offset="0.4938" stop-color="#F6F6F6"/>
<stop offset="1" stop-color="#E2E5E6"/>
</linearGradient>
<linearGradient id="paint3_linear" x1="126.159" y1="780.277" x2="-6.20802" y2="912.644" gradientUnits="userSpaceOnUse">
<stop stop-color="#E2E5E6"/>
<stop offset="0.4938" stop-color="#F6F6F6"/>
<stop offset="1" stop-color="#E2E5E6"/>
</linearGradient>
<linearGradient id="paint4_linear" x1="1249.46" y1="111.539" x2="1058.67" y2="302.326" gradientUnits="userSpaceOnUse">
<stop stop-color="white"/>
<stop offset="1" stop-color="white" stop-opacity="0"/>
</linearGradient>
<linearGradient id="paint5_linear" x1="1115.97" y1="245.03" x2="1008.64" y2="352.365" gradientUnits="userSpaceOnUse">
<stop stop-color="white"/>
<stop offset="1" stop-color="white" stop-opacity="0"/>
</linearGradient>
<linearGradient id="paint6_linear" x1="957.515" y1="175.818" x2="519.998" y2="613.335" gradientUnits="userSpaceOnUse">
<stop stop-color="white"/>
<stop offset="1" stop-color="white" stop-opacity="0"/>
</linearGradient>
<linearGradient id="paint7_linear" x1="638.217" y1="502.26" x2="802.334" y2="338.143" gradientUnits="userSpaceOnUse">
<stop stop-color="white"/>
<stop offset="1" stop-color="white" stop-opacity="0"/>
</linearGradient>
<linearGradient id="paint8_linear" x1="818.795" y1="401.89" x2="714.84" y2="505.844" gradientUnits="userSpaceOnUse">
<stop stop-color="white"/>
<stop offset="1" stop-color="white" stop-opacity="0"/>
</linearGradient>
<linearGradient id="paint9_linear" x1="466.311" y1="446.89" x2="275.524" y2="637.677" gradientUnits="userSpaceOnUse">
<stop stop-color="white"/>
<stop offset="1" stop-color="white" stop-opacity="0"/>
</linearGradient>
<linearGradient id="paint10_linear" x1="172.311" y1="736.111" x2="-7.58205" y2="916.004" gradientUnits="userSpaceOnUse">
<stop stop-color="white"/>
<stop offset="1" stop-color="white" stop-opacity="0"/>
</linearGradient>
<linearGradient id="paint11_linear" x1="353.471" y1="348.471" x2="-18.527" y2="-23.5272" gradientUnits="userSpaceOnUse">
<stop stop-color="white"/>
<stop offset="1" stop-color="white" stop-opacity="0"/>
</linearGradient>
<linearGradient id="paint12_linear" x1="1365.63" y1="905.296" x2="1147.62" y2="687.281" gradientUnits="userSpaceOnUse">
<stop stop-color="#E2E5E6"/>
<stop offset="0.4938" stop-color="#F6F6F6"/>
<stop offset="1" stop-color="#E2E5E6"/>
</linearGradient>
<linearGradient id="paint13_linear" x1="126.159" y1="120.39" x2="-6.20801" y2="-11.9766" gradientUnits="userSpaceOnUse">
<stop stop-color="#E2E5E6"/>
<stop offset="0.4938" stop-color="#F6F6F6"/>
<stop offset="1" stop-color="#E2E5E6"/>
</linearGradient>
<linearGradient id="paint14_linear" x1="1249.46" y1="789.13" x2="1058.67" y2="598.343" gradientUnits="userSpaceOnUse">
<stop stop-color="white"/>
<stop offset="1" stop-color="white" stop-opacity="0"/>
</linearGradient>
<linearGradient id="paint15_linear" x1="1102.42" y1="642.09" x2="989.272" y2="528.939" gradientUnits="userSpaceOnUse">
<stop stop-color="white"/>
<stop offset="1" stop-color="white" stop-opacity="0"/>
</linearGradient>
<linearGradient id="paint16_linear" x1="957.515" y1="724.849" x2="519.998" y2="287.332" gradientUnits="userSpaceOnUse">
<stop stop-color="white"/>
<stop offset="1" stop-color="white" stop-opacity="0"/>
</linearGradient>
<linearGradient id="paint17_linear" x1="638.217" y1="398.407" x2="802.334" y2="562.524" gradientUnits="userSpaceOnUse">
<stop stop-color="white"/>
<stop offset="1" stop-color="white" stop-opacity="0"/>
</linearGradient>
<linearGradient id="paint18_linear" x1="756.649" y1="498.777" x2="652.694" y2="394.823" gradientUnits="userSpaceOnUse">
<stop stop-color="white"/>
<stop offset="1" stop-color="white" stop-opacity="0"/>
</linearGradient>
<linearGradient id="paint19_linear" x1="466.311" y1="453.777" x2="275.524" y2="262.99" gradientUnits="userSpaceOnUse">
<stop stop-color="white"/>
<stop offset="1" stop-color="white" stop-opacity="0"/>
</linearGradient>
<linearGradient id="paint20_linear" x1="172.311" y1="164.556" x2="-7.58203" y2="-15.3364" gradientUnits="userSpaceOnUse">
<stop stop-color="white"/>
<stop offset="1" stop-color="white" stop-opacity="0"/>
</linearGradient>
<clipPath id="clip0">
<rect width="1366" height="793" fill="white"/>
</clipPath>
</defs>
</svg>
